<svg width="111" height="35" viewBox="0 0 111 35" fill="none" xmlns="http://www.w3.org/2000/svg">
<path d="M47.697 16.4101H50.5689V9.84574H57.5003V16.4101H60.3938V0.970947H57.5003V7.53527H50.5689V0.970947H47.697V16.4101Z" fill="#123333"/>
<path d="M63.9993 16.4101H66.8928V0.970947H63.9993V16.4101Z" fill="#123333"/>
<path d="M70.5343 16.4101H73.4062V10.5367H75.5655C78.8693 10.5367 81.2229 9.08998 81.2229 5.82941V5.74304C81.2229 2.50406 78.9557 0.970947 75.5007 0.970947H70.5343V16.4101ZM73.4062 8.46378V3.19504H75.5007C77.3362 3.19504 78.4158 3.90762 78.4158 5.74304V5.82941C78.4158 7.53527 77.4009 8.46378 75.5007 8.46378H73.4062Z" fill="#123333"/>
<path d="M81.4296 16.4101H84.1287L85.338 12.5881H91.2329L92.4637 16.4101H95.4436L90.3476 0.970947H86.5904L81.4296 16.4101ZM88.2962 3.3246L90.5635 10.4935H86.0073L88.2962 3.3246Z" fill="#123333"/>
<path d="M96.7177 16.4101H99.4169L100.626 12.5881H106.521L107.752 16.4101H110.732L105.636 0.970947H101.878L96.7177 16.4101ZM103.584 3.3246L105.852 10.4935H101.295L103.584 3.3246Z" fill="#123333"/>
<path d="M51.0439 30.9351C53.2465 30.9351 54.8271 29.8079 55.0991 27.5795H53.4149C53.2335 28.888 52.3266 29.5358 51.0439 29.5358C49.3338 29.5358 48.3362 28.305 48.3362 26.2191V26.1155C48.3362 24.0425 49.3985 22.7729 51.031 22.7729C52.3655 22.7729 53.0521 23.4077 53.2465 24.6385H54.9955C54.7882 22.4619 53.1428 21.3995 51.018 21.3995C48.4398 21.3995 46.5223 23.3429 46.5223 26.1284V26.2321C46.5223 29.0824 48.1418 30.9351 51.0439 30.9351Z" fill="#123333"/>
<path d="M59.4939 29.7172C58.302 29.7172 57.6153 28.8492 57.6153 27.4629V27.3592C57.6153 25.96 58.3279 25.1179 59.4939 25.1179C60.66 25.1179 61.3596 25.973 61.3596 27.3722V27.4629C61.3596 28.8492 60.66 29.7172 59.4939 29.7172ZM59.481 30.9351C61.4762 30.9351 62.9661 29.5617 62.9661 27.4499V27.3463C62.9661 25.2733 61.4762 23.8871 59.4939 23.8871C57.4987 23.8871 56.0088 25.2863 56.0088 27.3852V27.4888C56.0088 29.5488 57.4858 30.9351 59.481 30.9351Z" fill="#123333"/>
<path d="M64.3826 30.8055H65.9502V26.7503C65.9502 25.7138 66.6628 25.1956 67.4401 25.1956C68.2045 25.1956 68.645 25.6231 68.645 26.6208V30.8055H70.2127V26.7503C70.2127 25.7138 70.9253 25.1956 71.7026 25.1956C72.48 25.1956 72.9075 25.6231 72.9075 26.6208V30.8055H74.4752V26.5171C74.4752 24.6515 73.4646 23.8871 72.2209 23.8871C71.3787 23.8871 70.4459 24.2628 69.9277 25.1049C69.5908 24.2628 68.8912 23.8871 68.0102 23.8871C67.0126 23.8871 66.2741 24.4312 65.9502 25.066V24.0296H64.3826V30.8055Z" fill="#123333"/>
<path d="M76.2757 33.1246H77.8433V29.7431C78.2061 30.4039 78.9835 30.9351 80.0588 30.9351C81.8078 30.9351 83.0646 29.6136 83.0646 27.437V27.3333C83.0646 25.1438 81.756 23.8871 80.0588 23.8871C79.0612 23.8871 78.2191 24.4701 77.8433 25.1179V24.0296H76.2757V33.1246ZM79.6701 29.6913C78.53 29.6913 77.7915 28.9787 77.7915 27.4629V27.3592C77.7915 25.8564 78.5689 25.1179 79.6572 25.1179C80.6807 25.1179 81.458 25.8564 81.458 27.3592V27.4629C81.458 28.9139 80.8232 29.6913 79.6701 29.6913Z" fill="#123333"/>
<path d="M84.5132 30.8055H86.0809V20.8942H84.5132V30.8055Z" fill="#123333"/>
<path d="M88.0305 30.8055H89.5982V24.0296H88.0305V30.8055ZM88.7949 22.9154C89.3132 22.9154 89.7277 22.5267 89.7277 22.0214C89.7277 21.5032 89.3132 21.1145 88.7949 21.1145C88.2767 21.1145 87.8621 21.5032 87.8621 22.0214C87.8621 22.5267 88.2767 22.9154 88.7949 22.9154Z" fill="#123333"/>
<path d="M93.2839 30.9351C94.3204 30.9351 94.9164 30.5593 95.3569 29.9763V30.8055H96.8986V26.3616C96.8986 24.5089 95.7067 23.8871 94.1908 23.8871C92.675 23.8871 91.4183 24.5478 91.2887 26.1284H92.8046C92.8823 25.4547 93.2839 25.066 94.1002 25.066C95.02 25.066 95.331 25.5195 95.331 26.4264V26.7762H94.4888C92.5454 26.7762 91.0167 27.3463 91.0167 28.9269C91.0167 30.3391 92.0402 30.9351 93.2839 30.9351ZM93.6597 29.8079C92.8823 29.8079 92.5714 29.4322 92.5714 28.8621C92.5714 28.0329 93.3358 27.7609 94.5277 27.7609H95.331V28.4346C95.331 29.3026 94.6184 29.8079 93.6597 29.8079Z" fill="#123333"/>
<path d="M98.6955 30.8055H100.263V26.8151C100.263 25.7397 100.976 25.1956 101.857 25.1956C102.79 25.1956 103.204 25.662 103.204 26.6855V30.8055H104.772V26.543C104.772 24.6774 103.813 23.8871 102.453 23.8871C101.338 23.8871 100.587 24.4442 100.263 25.1049V24.0296H98.6955V30.8055Z" fill="#123333"/>
<path d="M108.884 30.9221C109.363 30.9221 109.7 30.8444 109.946 30.7537V29.5099C109.726 29.6006 109.493 29.6395 109.182 29.6395C108.69 29.6395 108.405 29.3674 108.405 28.7714V25.2086H109.895V24.0296H108.405V22.5396H106.837V24.0296H105.93V25.2086H106.837V28.9139C106.837 30.1966 107.537 30.9221 108.884 30.9221Z" fill="#123333"/>
<path d="M21.2047 20.693C21.9025 20.3823 22.492 20.1383 23.0615 19.8559C23.3202 19.7268 23.6169 19.5432 23.5608 19.1903C23.5147 18.8958 23.2339 18.7727 22.9733 18.692C21.7661 18.3209 20.555 17.9558 19.3439 17.5947C17.8159 17.1409 16.304 16.6447 15.0167 15.6624C13.7514 14.6982 12.7769 13.5223 12.7468 11.832C12.7147 9.99239 13.6712 8.69944 15.2232 7.86437C16.3722 7.24513 18.626 8.28594 19.0672 9.54661C19.2316 10.0166 18.9669 10.1941 18.5959 10.307C17.864 10.5269 17.1141 10.5491 16.3561 10.5067C15.1069 10.4382 14.5775 11.1482 14.9966 12.3503C15.2693 13.133 15.8789 13.6292 16.5446 14.0568C17.828 14.8777 19.2556 15.3639 20.6894 15.8338C21.8905 16.2292 23.1036 16.6003 24.2024 17.2478C26.0973 18.3633 26.1274 20.1786 24.2967 21.4232C23.8997 21.6934 23.5628 21.754 23.1156 21.5139C22.5522 21.2114 21.9366 21.0016 21.2047 20.693Z" fill="#123333"/>
<path d="M22.6101 3.05296C22.6282 3.80936 22.3595 4.46693 21.7319 4.86631C21.2667 5.16282 21.1865 5.52993 21.1804 6.01403C21.1423 8.79961 21.1002 11.5852 21.026 14.3708C21.018 14.6774 21.2627 15.2563 20.7193 15.2603C20.1658 15.2623 19.7126 15.0344 19.7167 14.2235C19.7327 11.4924 19.6324 8.76129 19.6004 6.02815C19.5943 5.50774 19.4921 5.15274 19.0229 4.81992C18.1687 4.21278 17.9521 2.98034 18.4153 2.04442C18.8665 1.1327 19.8751 0.634483 20.8335 0.85031C21.9163 1.09034 22.6061 1.9476 22.6101 3.05296Z" fill="#123333"/>
<path d="M21.459 15.4504C22.7383 14.9058 23.8633 14.4479 24.8017 13.6552C25.3912 13.159 25.8785 12.5942 25.8985 11.7591C25.9206 10.8313 25.5677 10.4501 24.6473 10.5005C23.8893 10.5428 23.1374 10.5408 22.4015 10.3633C21.5673 10.1636 21.4631 9.77233 22.0165 9.10871C23.1314 7.76735 24.4508 7.30947 25.6138 7.86417C27.258 8.6468 28.3869 10.7425 28.016 12.4147C27.5909 14.337 26.2594 15.5109 24.6152 16.4004C24.4387 16.4952 24.2543 16.4952 24.0698 16.4267C23.2457 16.1181 22.4195 15.8094 21.459 15.4504Z" fill="#123333"/>
<path d="M19.1932 18.1963C18.6658 18.398 18.2748 18.507 17.9239 18.6925C17.204 19.0677 17.196 19.5034 17.9038 19.925C18.2467 20.1287 18.6317 20.2699 19.0087 20.4131C20.2639 20.8932 21.5693 21.2563 22.7544 21.9037C23.7951 22.4726 24.4447 23.3096 24.3926 24.5723C24.3766 24.9334 24.2663 25.2602 24.0678 25.5607C23.763 26.0266 23.4863 26.3615 22.8987 25.8128C22.5498 25.4861 22.0265 25.3469 21.5633 25.1149C21.836 24.7861 22.4977 24.8103 22.4396 24.2657C22.3774 23.6687 21.7959 23.4912 21.3367 23.3117C20.1095 22.8336 18.8583 22.4141 17.6171 21.9723C16.813 21.6859 16.1072 21.2563 15.6019 20.5503C14.9602 19.6527 15.0264 18.632 15.7402 17.8918C16.1673 17.448 16.5864 17.2302 17.2261 17.5448C17.7996 17.8232 18.4452 17.9563 19.1932 18.1963Z" fill="#123333"/>
<path d="M19.59 23.1576C19.1148 23.5953 18.2867 23.6901 18.425 24.3759C18.5654 25.0779 19.3574 25.092 19.9369 25.2514C20.6608 25.449 21.4188 25.5257 22.1126 25.8343C23.3558 26.385 23.6525 27.7142 22.7883 28.7651C22.5417 29.0657 22.3412 29.1746 22.0123 28.8599C21.8038 28.6602 21.517 28.5412 21.2624 28.3899C21.0839 28.285 20.9335 28.2003 21.1741 27.9845C21.6754 27.5327 21.2844 27.3189 20.9034 27.212C20.1796 27.0082 19.4397 26.867 18.7078 26.6956C18.1804 26.5725 17.6711 26.4011 17.2279 26.0804C16.093 25.2614 16.073 23.3714 17.1758 22.5384C17.3583 22.4012 17.5127 22.4214 17.6972 22.4859C18.3027 22.7038 18.9083 22.9156 19.59 23.1576Z" fill="#123333"/>
<path d="M22.5802 30.762C22.522 31.6314 22.0929 32.3616 21.4894 33.005C21.359 33.1442 21.2086 33.3076 21.0161 33.122C20.8557 32.9667 20.6672 32.8477 20.7715 32.5189C21.2908 30.875 21.1826 30.6128 19.5905 29.8947C18.5077 29.4045 17.5793 28.8478 17.5833 27.4641C17.5853 27.0264 17.6414 26.7944 18.1648 26.9921C18.7082 27.1979 19.2917 27.1152 19.6366 27.8736C19.9033 28.4585 20.7835 28.6058 21.3931 28.9386C22.113 29.3299 22.5641 29.8745 22.5802 30.762Z" fill="#123333"/>
<path d="M21.4443 34.0907C19.756 33.9374 18.1578 32.1402 18.2501 30.5185C18.2802 29.9779 18.3784 29.6894 18.996 30.0808C19.4813 30.3873 19.9064 30.5649 19.6978 31.3253C19.5274 31.9486 19.9705 32.5133 20.3736 32.9914C20.7004 33.3787 21.0814 33.7216 21.4443 34.0907Z" fill="#123333"/>
<path d="M20.9632 19.5794C20.9491 20.5839 20.8489 20.6344 20.1471 20.3378C19.6338 20.122 19.7982 19.7529 19.8002 19.2486C19.8022 18.8331 19.738 18.6294 19.9686 18.4317C20.1792 18.2522 20.9311 18.6455 20.9592 18.938C20.9792 19.1518 20.9632 19.3656 20.9632 19.5794Z" fill="#123333"/>
<path d="M20.8921 24.2269C20.8841 24.4992 20.9583 25.0721 20.5272 25.0337C19.7111 24.9591 19.9517 24.358 19.9276 23.8981C19.9176 23.7166 19.9317 23.3152 20.1663 23.3737C20.6655 23.4947 20.832 23.3999 20.8921 24.2269Z" fill="#123333"/>
<path d="M17.521 3.60855C17.3827 2.75533 17.0298 1.95051 16.4803 1.28689C15.9269 0.619243 15.1048 0 13.9578 0C11.4774 0 4.27478 3.8627 0.833886 3.38062C0.833886 3.38062 0.0338169 5.39366 2.1934 6.19848C4.35298 7.00329 8.27513 6.44053 8.27513 6.44053C8.27513 6.44053 10.1961 8.53425 12.8369 7.72742C14.9223 7.09204 15.7605 6.5555 16.9255 6.8742C17.4208 7.00934 17.898 6.60593 17.8439 6.09157C17.7757 5.41585 17.6694 4.52632 17.521 3.60855Z" fill="#123333"/>
<path d="M23.2633 3.60855C23.4017 2.75533 23.7546 1.95051 24.304 1.2869C24.8554 0.62126 25.6776 0 26.8245 0C29.3049 0 36.5056 3.8627 39.9464 3.38062C39.9464 3.38062 40.7465 5.39366 38.5869 6.19848C36.4274 7.00329 32.5052 6.44053 32.5052 6.44053C32.5052 6.44053 30.5863 8.53224 27.9474 7.72742C25.862 7.09204 25.0239 6.5555 23.8589 6.8742C23.3636 7.00934 22.8863 6.60593 22.9405 6.09157C23.0087 5.41585 23.1149 4.52632 23.2633 3.60855Z" fill="#123333"/>
</svg>
