<svg width="116" height="30" viewBox="0 0 116 30" fill="none" xmlns="http://www.w3.org/2000/svg">
<path d="M39.4466 15.9842H41.8995V10.3776H47.8196V15.9842H50.2909V2.7977H47.8196V8.40425H41.8995V2.7977H39.4466V15.9842Z" fill="#123333"/>
<path d="M53.3704 15.9842H55.8417V2.7977H53.3704V15.9842Z" fill="#123333"/>
<path d="M61.5892 15.9842H64.0605V4.73417H67.7306V2.7977H57.9191V4.73417H61.5892V15.9842Z" fill="#123333"/>
<path d="M69.7041 15.9842H72.1569V10.6543H73.7246L77.1733 15.9842H79.8291L76.1221 10.2854C77.7635 9.86122 79.0545 8.80999 79.0545 6.74442V6.67065C79.0545 3.97803 77.0258 2.7977 74.1303 2.7977H69.7041V15.9842ZM72.1569 8.90221V4.69729H74.1303C75.6979 4.69729 76.6385 5.21368 76.6385 6.72598V6.79975C76.6385 8.20139 75.7717 8.90221 74.1303 8.90221H72.1569Z" fill="#123333"/>
<path d="M86.6806 16.1686C90.1663 16.1686 92.029 14.269 92.029 10.8202V2.7977H89.5577V10.6174C89.5577 13.3469 88.5987 14.1952 86.6991 14.1952C84.7442 14.1952 83.9696 13.1993 83.9696 10.7834V2.7977H81.4983V10.9678C81.4983 14.3612 83.3794 16.1686 86.6806 16.1686Z" fill="#123333"/>
<path d="M99.4181 16.1686C102.332 16.1686 104.269 14.3797 104.269 12.0928C104.269 9.45548 102.664 8.57024 99.5657 8.14606C97.2788 7.81409 96.8362 7.27925 96.8362 6.20958C96.8362 5.19524 97.6108 4.47598 99.1046 4.47598C100.617 4.47598 101.41 5.06614 101.65 6.44934H103.9C103.642 3.9227 101.945 2.63171 99.1046 2.63171C96.3567 2.63171 94.5124 4.25466 94.5124 6.41245C94.5124 8.88376 96.0063 9.84278 99.16 10.267C101.299 10.6174 101.908 11.0784 101.908 12.2956C101.908 13.5129 100.875 14.3243 99.4181 14.3243C97.1866 14.3243 96.6518 13.2178 96.4858 11.8899H94.1251C94.3095 14.3797 95.8218 16.1686 99.4181 16.1686Z" fill="#123333"/>
<path d="M108.92 15.9842H111.392V4.73417H115.062V2.7977H105.25V4.73417H108.92V15.9842Z" fill="#123333"/>
<path d="M42.3052 28.3899C44.1864 28.3899 45.5364 27.4272 45.7688 25.5239H44.3302C44.1753 26.6415 43.4007 27.1948 42.3052 27.1948C40.8446 27.1948 39.9925 26.1436 39.9925 24.362V24.2735C39.9925 22.503 40.8999 21.4186 42.2942 21.4186C43.4339 21.4186 44.0204 21.9608 44.1864 23.012H45.6802C45.5032 21.153 44.0979 20.2456 42.2831 20.2456C40.0811 20.2456 38.4434 21.9055 38.4434 24.2846V24.3731C38.4434 26.8075 39.8266 28.3899 42.3052 28.3899Z" fill="#123333"/>
<path d="M49.7326 28.3899C51.4809 28.3899 52.6428 27.3165 52.6428 25.9444C52.6428 24.362 51.6801 23.8309 49.8211 23.5764C48.449 23.3772 48.1834 23.0563 48.1834 22.4145C48.1834 21.8059 48.6482 21.3743 49.5445 21.3743C50.4518 21.3743 50.9277 21.7284 51.0715 22.5584H52.4215C52.2666 21.0424 51.2486 20.2678 49.5445 20.2678C47.8957 20.2678 46.7891 21.2415 46.7891 22.5362C46.7891 24.019 47.6854 24.5944 49.5777 24.8489C50.8613 25.0592 51.2264 25.3358 51.2264 26.0661C51.2264 26.7965 50.6068 27.2833 49.7326 27.2833C48.3936 27.2833 48.0727 26.6194 47.9732 25.8227H46.5568C46.6674 27.3165 47.5748 28.3899 49.7326 28.3899Z" fill="#123333"/>
<path d="M54.0677 28.2793H55.5394V25.037H58.2394V23.8973H55.5394V21.5403H58.9697V20.3674H54.0677V28.2793Z" fill="#123333"/>
<path d="M66.3491 28.3899C68.2302 28.3899 69.5802 27.4272 69.8126 25.5239H68.3741C68.2192 26.6415 67.4446 27.1948 66.3491 27.1948C64.8884 27.1948 64.0364 26.1436 64.0364 24.362V24.2735C64.0364 22.503 64.9438 21.4186 66.338 21.4186C67.4778 21.4186 68.0643 21.9608 68.2302 23.012H69.7241C69.547 21.153 68.1417 20.2456 66.327 20.2456C64.1249 20.2456 62.4872 21.9055 62.4872 24.2846V24.3731C62.4872 26.8075 63.8704 28.3899 66.3491 28.3899Z" fill="#123333"/>
<path d="M73.5219 28.3899C75.0047 28.3899 75.9895 27.726 76.1777 26.5088H74.883C74.7834 27.0731 74.3629 27.394 73.5551 27.394C72.5592 27.394 72.0059 26.7743 71.9617 25.6788H76.1998V25.2915C76.1998 23.2223 74.9051 22.3702 73.4666 22.3702C71.8178 22.3702 70.5895 23.5653 70.5895 25.3579V25.4465C70.5895 27.2723 71.8178 28.3899 73.5219 28.3899ZM71.9838 24.7825C72.1166 23.8862 72.6588 23.344 73.4666 23.344C74.2965 23.344 74.8055 23.7866 74.8719 24.7825H71.9838Z" fill="#123333"/>
<path d="M77.3957 28.2793H78.7347V25.2694C78.7347 24.0411 79.4429 23.6649 80.6158 23.6538V22.4034C79.642 22.4145 79.0998 22.8461 78.7347 23.5764V22.492H77.3957V28.2793Z" fill="#123333"/>
<path d="M83.8176 28.3788C84.227 28.3788 84.5147 28.3124 84.7249 28.235V27.1727C84.5368 27.2502 84.3376 27.2833 84.0721 27.2833C83.6516 27.2833 83.4081 27.051 83.4081 26.542V23.4989H84.6807V22.492H83.4081V21.2194H82.0692V22.492H81.2946V23.4989H82.0692V26.6637C82.0692 27.7592 82.6667 28.3788 83.8176 28.3788Z" fill="#123333"/>
<path d="M85.9658 28.2793H87.3048V22.492H85.9658V28.2793ZM86.6187 21.5403C87.0613 21.5403 87.4154 21.2083 87.4154 20.7768C87.4154 20.3342 87.0613 20.0022 86.6187 20.0022C86.1761 20.0022 85.822 20.3342 85.822 20.7768C85.822 21.2083 86.1761 21.5403 86.6187 21.5403Z" fill="#123333"/>
<path d="M89.1691 28.2793H90.5081V23.4989H91.8249V22.492H90.5081V21.662C90.5081 21.1641 90.7294 20.81 91.2605 20.81C91.504 20.81 91.67 20.8321 91.8249 20.8985V19.8584C91.6146 19.792 91.4265 19.7588 91.0946 19.7588C89.8663 19.7588 89.1691 20.4448 89.1691 21.7174V22.492H88.3835V23.4989H89.1691V28.2793Z" fill="#123333"/>
<path d="M92.8278 28.2793H94.1667V22.492H92.8278V28.2793ZM93.4807 21.5403C93.9233 21.5403 94.2774 21.2083 94.2774 20.7768C94.2774 20.3342 93.9233 20.0022 93.4807 20.0022C93.038 20.0022 92.6839 20.3342 92.6839 20.7768C92.6839 21.2083 93.038 21.5403 93.4807 21.5403Z" fill="#123333"/>
<path d="M98.3438 28.3899C99.8266 28.3899 100.811 27.726 101 26.5088H99.7049C99.6053 27.0731 99.1848 27.394 98.377 27.394C97.3811 27.394 96.8278 26.7743 96.7836 25.6788H101.022V25.2915C101.022 23.2223 99.727 22.3702 98.2885 22.3702C96.6397 22.3702 95.4114 23.5653 95.4114 25.3579V25.4465C95.4114 27.2723 96.6397 28.3899 98.3438 28.3899ZM96.8057 24.7825C96.9385 23.8862 97.4807 23.344 98.2885 23.344C99.1184 23.344 99.6274 23.7866 99.6938 24.7825H96.8057Z" fill="#123333"/>
<path d="M104.386 28.3899C105.239 28.3899 105.98 27.8809 106.29 27.3055V28.2793H107.629V19.8141H106.29V23.3772C105.969 22.8018 105.382 22.3702 104.442 22.3702C102.937 22.3702 101.841 23.5432 101.841 25.3911V25.4797C101.841 27.3608 102.937 28.3899 104.386 28.3899ZM104.718 27.3276C103.855 27.3276 103.214 26.719 103.214 25.4465V25.3579C103.214 24.1075 103.789 23.4215 104.774 23.4215C105.748 23.4215 106.334 24.0522 106.334 25.3247V25.4133C106.334 26.7079 105.648 27.3276 104.718 27.3276Z" fill="#123333"/>
<path fill-rule="evenodd" clip-rule="evenodd" d="M27.3449 6.00984C27.6431 6.0793 27.8539 6.34429 27.8539 6.65043H27.8513V12.6499V12.8557C27.8513 21.2967 21.9186 27.1264 14.328 30.0001C6.73736 27.1264 0.804688 21.2967 0.804688 12.8557V12.6499V6.65043C0.804688 6.34429 1.01547 6.0793 1.31364 6.00984C2.90477 5.64452 4.66041 5.09911 6.46746 4.38648C9.78081 3.07698 12.5852 1.47421 14.328 6.10352e-05C16.0733 1.47421 18.8752 3.07698 22.1911 4.38648C23.9981 5.09911 25.7538 5.64452 27.3449 6.00984ZM13.4467 19.2613L20.9977 12.2311L20.2003 11.3746L13.4889 17.6231L10.0766 14.1006L9.23609 14.9149L13.4467 19.2613Z" fill="#123333"/>
</svg>
