<svg width="133" height="36" viewBox="0 0 133 36" fill="none" xmlns="http://www.w3.org/2000/svg">
<path d="M63.1726 17.4232H66.3645V10.8955H68.7644C72.4363 10.8955 75.0521 9.28759 75.0521 5.66375V5.56775C75.0521 1.96791 72.5322 0.263988 68.6924 0.263988H63.1726V17.4232ZM66.3645 8.59162V2.73588H68.6924C70.7323 2.73588 71.9323 3.52785 71.9323 5.56775V5.66375C71.9323 7.55967 70.8043 8.59162 68.6924 8.59162H66.3645ZM85.4257 17.6633C89.5056 17.6633 92.4334 15.5753 92.9374 11.4475H89.8175C89.4815 13.8714 87.8016 15.0713 85.4257 15.0713C82.2579 15.0713 80.4099 12.7914 80.4099 8.9276V8.73562C80.4099 4.89578 82.3778 2.54389 85.4017 2.54389C87.8736 2.54389 89.1455 3.71983 89.5055 5.99973H92.7454C92.3614 1.96791 89.3136 0 85.3778 0C80.602 0 77.0501 3.59985 77.0501 8.75961V8.95161C77.0501 14.2313 80.05 17.6633 85.4257 17.6633ZM95.7983 17.4232H99.0142V0.263988H95.7983V17.4232ZM66.8924 33.5665C69.3404 33.5665 71.0971 32.3137 71.3995 29.8371H69.5275C69.326 31.2915 68.318 32.0113 66.8924 32.0113C64.9917 32.0113 63.8829 30.6435 63.8829 28.3252V28.21C63.8829 25.9061 65.0637 24.4949 66.878 24.4949C68.3612 24.4949 69.1244 25.2005 69.3404 26.5684H71.2843C71.0539 24.1493 69.2252 22.9686 66.8636 22.9686C63.9981 22.9686 61.8671 25.1285 61.8671 28.2244V28.3396C61.8671 31.5075 63.6671 33.5665 66.8924 33.5665ZM76.2838 32.2129C74.959 32.2129 74.1958 31.2483 74.1958 29.7075V29.5923C74.1958 28.0372 74.9878 27.1012 76.2838 27.1012C77.5796 27.1012 78.3573 28.0516 78.3573 29.6067V29.7075C78.3573 31.2483 77.5796 32.2129 76.2838 32.2129ZM76.2694 33.5665C78.4868 33.5665 80.1427 32.0401 80.1427 29.6931V29.5779C80.1427 27.274 78.4868 25.7333 76.2838 25.7333C74.0662 25.7333 72.4103 27.2884 72.4103 29.6211V29.7363C72.4103 32.0257 74.0518 33.5665 76.2694 33.5665ZM81.7171 33.4225H83.4593V28.9155C83.4593 27.7636 84.2514 27.1876 85.1154 27.1876C85.965 27.1876 86.4544 27.6628 86.4544 28.7715V33.4225H88.1968V28.9155C88.1968 27.7636 88.9887 27.1876 89.8527 27.1876C90.7167 27.1876 91.1919 27.6628 91.1919 28.7715V33.4225H92.9342V28.6564C92.9342 26.5828 91.8111 25.7333 90.4287 25.7333C89.4927 25.7333 88.456 26.1508 87.88 27.0868C87.5056 26.1508 86.728 25.7333 85.7489 25.7333C84.6401 25.7333 83.8193 26.338 83.4593 27.0436V25.8916H81.7171V33.4225ZM94.9354 36H96.6776V32.2417C97.0808 32.9761 97.9448 33.5665 99.14 33.5665C101.084 33.5665 102.481 32.0977 102.481 29.6787V29.5635C102.481 27.13 101.026 25.7333 99.14 25.7333C98.0312 25.7333 97.0952 26.3812 96.6776 27.1012V25.8916H94.9354V36ZM98.708 32.1841C97.4408 32.1841 96.62 31.3923 96.62 29.7075V29.5923C96.62 27.922 97.484 27.1012 98.6936 27.1012C99.8311 27.1012 100.695 27.922 100.695 29.5923V29.7075C100.695 31.3203 99.9895 32.1841 98.708 32.1841ZM104.09 33.4225H105.833V22.407H104.09V33.4225ZM108 33.4225H109.742V25.8916H108V33.4225ZM108.849 24.6533C109.425 24.6533 109.886 24.2213 109.886 23.6597C109.886 23.0837 109.425 22.6518 108.849 22.6518C108.273 22.6518 107.813 23.0837 107.813 23.6597C107.813 24.2213 108.273 24.6533 108.849 24.6533ZM113.839 33.5665C114.99 33.5665 115.653 33.1489 116.142 32.5009V33.4225H117.856V28.4836C117.856 26.4244 116.531 25.7333 114.846 25.7333C113.162 25.7333 111.765 26.4676 111.621 28.2244H113.306C113.392 27.4756 113.839 27.0436 114.746 27.0436C115.768 27.0436 116.114 27.5476 116.114 28.5556V28.9443H115.178C113.018 28.9443 111.319 29.5779 111.319 31.3347C111.319 32.9041 112.456 33.5665 113.839 33.5665ZM114.256 32.3137C113.392 32.3137 113.047 31.8961 113.047 31.2627C113.047 30.3411 113.896 30.0387 115.221 30.0387H116.114V30.7875C116.114 31.7521 115.322 32.3137 114.256 32.3137ZM119.853 33.4225H121.595V28.9875C121.595 27.7924 122.387 27.1876 123.366 27.1876C124.403 27.1876 124.864 27.706 124.864 28.8435V33.4225H126.606V28.6852C126.606 26.6116 125.541 25.7333 124.029 25.7333C122.791 25.7333 121.955 26.3524 121.595 27.0868V25.8916H119.853V33.4225ZM131.177 33.5521C131.709 33.5521 132.083 33.4657 132.357 33.3649V31.9825C132.113 32.0833 131.853 32.1265 131.507 32.1265C130.961 32.1265 130.643 31.8241 130.643 31.1619V27.202H132.299V25.8916H130.643V24.2357H128.902V25.8916H127.894V27.202H128.902V31.3203C128.902 32.7457 129.679 33.5521 131.177 33.5521Z" fill="#123333"/>
<path fill-rule="evenodd" clip-rule="evenodd" d="M9.2854 24.519L12.6225 33.4229L42.1659 24.519H41.7438V12.4114H46.2812V23.2788L53.1356 21.2129L43.4897 0.144409L1.04736 2.53854L8.74315 23.0724V7.96652H15.341C20.11 7.96652 22.1472 10.0964 22.1472 13.6384V13.7309C22.1472 17.1804 19.8553 19.125 15.5726 19.125H13.9752V24.519H9.2854ZM13.9752 11.8789V15.6061H15.0632C16.4523 15.6061 17.1699 14.981 17.1699 13.7541V13.6615C17.1699 12.3882 16.4523 11.8789 15.0863 11.8789H13.9752ZM40.1311 18.1758C39.853 22.528 36.6583 24.8198 32.2831 24.8198C26.3102 24.8198 23.4859 21.4168 23.4859 16.347V16.1617C23.4859 11.0455 27.1669 7.71188 32.0514 7.71188C36.5194 7.71188 39.5292 9.7491 39.9227 14.2402H34.5054C34.3435 12.7123 33.5332 11.8558 32.0748 11.8558C30.1764 11.8558 29.019 13.3374 29.019 16.1386V16.3238C29.019 19.0787 30.1299 20.6065 32.1673 20.6065C33.6488 20.6065 34.7138 19.8427 34.899 18.1758H40.1311ZM46.4665 9.21665C46.4665 10.5362 45.4015 11.5085 44.0124 11.5085C42.6003 11.5085 41.5355 10.5362 41.5355 9.21665C41.5355 7.87392 42.6003 6.90162 44.0124 6.90162C45.4015 6.90162 46.4665 7.87392 46.4665 9.21665Z" fill="#123333"/>
</svg>
